
        <svg xmlns="http://www.w3.org/2000/svg" xmlns:xlink="http://www.w3.org/1999/xlink" version="1.1" width="3154.2416452442158" 
        height="2930.5912596401026" viewBox="0 0 3154.2416452442158 2930.5912596401026">
			
			<g transform="scale(7.712082262210797) translate(10, 10)">
				<defs id="SvgjsDefs13788"></defs><g id="SvgjsG13789" featureKey="rootContainer" transform="matrix(1,0,0,1,0,0)" fill="#ffffff"><rect xmlns="http://www.w3.org/2000/svg" width="389" height="360" rx="10" ry="10"></rect></g><g id="SvgjsG13790" featureKey="symbolFeature-0" transform="matrix(2.8103107157389076,0,0,2.8103107157389076,41.533769598457525,11.2880370492215)" fill="#15d999"><g xmlns="http://www.w3.org/2000/svg"><path d="M66.2,71.5c-0.6,0.1-0.7-1.3-0.5-1.8c1.6-5-1.3-25-8.6-36.7c-0.2-0.4,1.2-0.7,1.4-0.4C66.1,42.9,71.4,70.8,66.2,71.5z"></path></g><path xmlns="http://www.w3.org/2000/svg" d="M55.9,11.5c5.1,6.8,0,18.6,0,18.6s-13.4,0.8-18.5-5.9S33.1,3.1,33.1,3.1S50.8,4.7,55.9,11.5z"></path><path xmlns="http://www.w3.org/2000/svg" d="M74.1,28.3c-5.4,4.1-14.2,2.9-14.2,2.9s-0.1-7.7,5.3-11.8s14.2-2.9,14.2-2.9S79.5,24.2,74.1,28.3z"></path><path xmlns="http://www.w3.org/2000/svg" d="M43.1,30.2c7.3-0.1,12.8,7.3,12.8,7.3S49.7,45,42.5,45s-12.8-7.3-12.8-7.3S35.8,30.2,43.1,30.2z"></path><g xmlns="http://www.w3.org/2000/svg"><path d="M67.8,70.6c-0.1,0-0.2,0-0.3-0.1c0,0.1-0.2,1.9-0.3,2.4c-0.1,0.5-0.2,1.1-0.4,1.7c-0.2,0.6-0.4,1.3-0.7,1.9   c-0.3,0.7-0.6,1.4-1,2.1c-0.4,0.7-0.9,1.4-1.5,2.1c-0.6,0.7-1.3,1.3-2.1,1.9c-1.6,1.2-3.5,1.9-5,2.6c-0.8,0.4-1.5,0.8-1.9,1.3   c-0.5,0.5-0.7,1.1-0.9,1.7c-0.1,0.6-0.2,1.1-0.2,1.6c0,0.5,0.1,0.9,0.1,1.3c0.1,0.7,0.2,1.1,0.2,1.1s-0.1-0.4-0.3-1.1   c-0.1-0.3-0.2-0.8-0.3-1.3c-0.1-0.5-0.1-1.1,0-1.7c0.1-0.6,0.3-1.3,0.8-1.9c0.5-0.6,1.2-1.2,2-1.6c1.6-0.9,3.2-1.7,4.5-2.8   c0.6-0.6,1.2-1.2,1.6-1.8c2.2-2.9,3.2-4.1,3.6-8c0-0.7,0.1-1.9,0.1-1.9l1.8,0.4c-6.3-2-14.6,2.1-18.7,9.4   c-4.2,7.5-2.5,15.4,3.8,17.8s14.9-1.8,19.2-9.2C75.9,80.9,74.2,72.9,67.8,70.6z"></path></g></g><g id="SvgjsG13791" featureKey="nameFeature-0" transform="matrix(1.026854821245166,0,0,1.026854821245166,17.946289867867133,298.4707894916148)" fill="#444444"><path d="M27.6 30.92 q0 2.92 -1.76 5.2 q-1.72 2.16 -4.74 3.36 t-6.82 1.2 q-3.48 0 -6.76 -1.62 t-5.52 -4.5 l3.12 -2.92 q3.88 4.68 9.16 4.68 q2.32 0 4.24 -0.56 q2.12 -0.64 3.28 -1.8 q1.32 -1.28 1.32 -3.04 q0 -2.12 -1.32 -3.2 q-1.12 -0.92 -3.32 -1.2 q-1.28 -0.16 -4.2 -0.16 q-5.36 0 -8.18 -1.96 t-2.82 -5.76 q0 -2.4 1.42 -4.56 t3.9 -3.44 q2.56 -1.36 5.68 -1.36 q3.52 0 6.36 1.08 q3.04 1.16 5.64 3.64 l-2.72 3.2 q-2.44 -1.96 -4.44 -2.74 t-4.84 -0.78 q-1.64 0 -3.06 0.68 t-2.26 1.82 t-0.84 2.42 q0 3.44 6.36 3.44 q5.08 0 8.04 1.04 q2.8 1 4 3.04 q1.08 1.8 1.08 4.8 z M48.97 22.92 l5.28 0 q4.4 0 4.4 -4.24 q0 -2.2 -1.1 -3.18 t-3.3 -0.98 l-10.96 0 l0 9.6 q1.24 -0.72 2.8 -1 q1.16 -0.2 2.88 -0.2 z M43.29 40 l-4.36 0 l0 -29.84 l15.32 0 q2.64 0 4.6 1.02 t3.04 2.94 t1.08 4.54 t-1.08 4.58 t-3.06 3.02 t-4.58 1.06 l-5.28 0 q-3.44 0 -5.68 1.2 l0 11.48 z M78.66000000000001 14.52 l0 9.92 q1.24 -0.72 2.76 -0.96 q1.12 -0.2 2.88 -0.2 l5.68 0 q2.36 0 3.68 -1.08 q1.4 -1.16 1.4 -3.48 q0 -2.2 -1.48 -3.28 q-1.28 -0.92 -3.6 -0.92 l-11.32 0 z M91.42 35.28 l-3.64 -7.64 l-3.48 0 q-1.64 0 -2.88 0.2 q-1.52 0.28 -2.76 0.96 l0 11.2 l-4.36 0 l0 -29.84 l15.68 0 q2.76 0 4.88 1.04 t3.28 2.96 q1.24 2.04 1.24 4.8 q0 3.36 -1.8 5.52 t-5.08 3 l2.32 4.76 q1 1.48 1.56 2.08 q0.68 0.76 1.3 1.02 t1.62 0.26 l0.44 0 l0.96 -0.04 l0 4.44 q-2.32 0 -3.44 -0.16 q-1.88 -0.32 -3.2 -1.24 q-1.56 -1.12 -2.64 -3.32 z M138.63 24.880000000000003 q0 -3.2 -1.64 -5.8 q-1.56 -2.52 -4.26 -3.96 t-5.86 -1.44 q-3.28 0 -5.98 1.48 t-4.22 4.04 q-1.56 2.68 -1.56 5.96 q0 3.12 1.68 5.76 q1.6 2.48 4.3 3.94 t5.84 1.46 t5.84 -1.52 t4.26 -4.08 q1.6 -2.68 1.6 -5.84 z M142.95000000000002 25.119999999999997 q0 4.32 -2.24 7.96 q-2.16 3.48 -5.86 5.54 t-7.98 2.06 q-4.44 0 -8.16 -2.16 q-3.64 -2.08 -5.72 -5.72 q-2.16 -3.72 -2.16 -8.16 q0 -4.28 2.28 -7.88 q2.16 -3.44 5.86 -5.46 t7.94 -2.02 q4.36 0 8.08 2.12 q3.64 2.08 5.76 5.64 q2.2 3.72 2.2 8.08 z M167.68 40.68 q-4.2 0 -7.22 -1.46 t-4.6 -4.22 t-1.58 -6.6 l0 -18.24 l4.32 0 l0 18.24 q0 3.84 2.36 5.88 t6.72 2.04 t6.72 -2.04 t2.36 -5.88 l0 -18.24 l4.32 0 l0 18.24 q0 3.84 -1.58 6.6 t-4.6 4.22 t-7.22 1.46 z M216.60999999999999 14.559999999999999 l-10.52 0 l0 25.44 l-4.24 0 l0 -25.44 l-10.64 0 l0 -4.4 l25.4 0 l0 4.4 z M263.83000000000004 40 l-20.92 0 l0 -29.84 l4.36 0 l0 25.48 l16.56 0 l0 4.36 z M299.76 24.880000000000003 q0 -3.2 -1.64 -5.8 q-1.56 -2.52 -4.26 -3.96 t-5.86 -1.44 q-3.28 0 -5.98 1.48 t-4.22 4.04 q-1.56 2.68 -1.56 5.96 q0 3.12 1.68 5.76 q1.6 2.48 4.3 3.94 t5.84 1.46 t5.84 -1.52 t4.26 -4.08 q1.6 -2.68 1.6 -5.84 z M304.08 25.119999999999997 q0 4.32 -2.24 7.96 q-2.16 3.48 -5.86 5.54 t-7.98 2.06 q-4.44 0 -8.16 -2.16 q-3.64 -2.08 -5.72 -5.72 q-2.16 -3.72 -2.16 -8.16 q0 -4.28 2.28 -7.88 q2.16 -3.44 5.86 -5.46 t7.94 -2.02 q4.36 0 8.08 2.12 q3.64 2.08 5.76 5.64 q2.2 3.72 2.2 8.08 z M341.37 14 l-2.8 3.28 q-1.64 -1.68 -3.92 -2.64 t-4.8 -0.96 q-3.28 0 -5.98 1.48 t-4.22 4.04 q-1.56 2.68 -1.56 5.96 q0 3.12 1.68 5.76 q1.6 2.48 4.3 3.94 t5.82 1.46 q2.2 0 4.22 -0.76 t3.62 -2.12 l0 -5.44 l-3.84 0 l-1.88 -4.32 l10.04 0 l0 11.6 q-2.28 2.56 -5.46 3.98 t-6.74 1.42 q-4.44 0 -8.16 -2.16 q-3.64 -2.08 -5.72 -5.72 q-2.16 -3.72 -2.16 -8.16 q0 -4.28 2.28 -7.88 q2.16 -3.44 5.86 -5.46 t7.94 -2.02 q3.32 0 6.32 1.28 q2.92 1.2 5.16 3.44 z"></path></g>
			</g>
		</svg>
	