
        <svg xmlns="http://www.w3.org/2000/svg" xmlns:xlink="http://www.w3.org/1999/xlink" version="1.1" width="3158.311345646438" 
        height="3007.9155672823217" viewBox="0 0 3158.311345646438 3007.9155672823217">
			<rect fill="#ffffff" width="3158.311345646438" height="3007.9155672823217"/>
			<g transform="scale(7.915567282321899) translate(10, 10)">
				<defs id="SvgjsDefs3328"></defs><g id="SvgjsG3329" featureKey="rootContainer" transform="matrix(1,0,0,1,0,0)" fill="#000000"><rect xmlns="http://www.w3.org/2000/svg" width="379" height="360" rx="10" ry="10"></rect></g><g id="SvgjsG3330" featureKey="symbolFeature-0" transform="matrix(2.728817534411965,0,0,2.728817534411965,40.95411714604208,11.540665903563228)" fill="#17ff78"><g xmlns="http://www.w3.org/2000/svg"><path d="M66.2,71.5c-0.6,0.1-0.7-1.3-0.5-1.8c1.6-5-1.3-25-8.6-36.7c-0.2-0.4,1.2-0.7,1.4-0.4C66.1,42.9,71.4,70.8,66.2,71.5z"></path></g><path xmlns="http://www.w3.org/2000/svg" d="M55.9,11.5c5.1,6.8,0,18.6,0,18.6s-13.4,0.8-18.5-5.9S33.1,3.1,33.1,3.1S50.8,4.7,55.9,11.5z"></path><path xmlns="http://www.w3.org/2000/svg" d="M74.1,28.3c-5.4,4.1-14.2,2.9-14.2,2.9s-0.1-7.7,5.3-11.8s14.2-2.9,14.2-2.9S79.5,24.2,74.1,28.3z"></path><path xmlns="http://www.w3.org/2000/svg" d="M43.1,30.2c7.3-0.1,12.8,7.3,12.8,7.3S49.7,45,42.5,45s-12.8-7.3-12.8-7.3S35.8,30.2,43.1,30.2z"></path><g xmlns="http://www.w3.org/2000/svg"><path d="M67.8,70.6c-0.1,0-0.2,0-0.3-0.1c0,0.1-0.2,1.9-0.3,2.4c-0.1,0.5-0.2,1.1-0.4,1.7c-0.2,0.6-0.4,1.3-0.7,1.9   c-0.3,0.7-0.6,1.4-1,2.1c-0.4,0.7-0.9,1.4-1.5,2.1c-0.6,0.7-1.3,1.3-2.1,1.9c-1.6,1.2-3.5,1.9-5,2.6c-0.8,0.4-1.5,0.8-1.9,1.3   c-0.5,0.5-0.7,1.1-0.9,1.7c-0.1,0.6-0.2,1.1-0.2,1.6c0,0.5,0.1,0.9,0.1,1.3c0.1,0.7,0.2,1.1,0.2,1.1s-0.1-0.4-0.3-1.1   c-0.1-0.3-0.2-0.8-0.3-1.3c-0.1-0.5-0.1-1.1,0-1.7c0.1-0.6,0.3-1.3,0.8-1.9c0.5-0.6,1.2-1.2,2-1.6c1.6-0.9,3.2-1.7,4.5-2.8   c0.6-0.6,1.2-1.2,1.6-1.8c2.2-2.9,3.2-4.1,3.6-8c0-0.7,0.1-1.9,0.1-1.9l1.8,0.4c-6.3-2-14.6,2.1-18.7,9.4   c-4.2,7.5-2.5,15.4,3.8,17.8s14.9-1.8,19.2-9.2C75.9,80.9,74.2,72.9,67.8,70.6z"></path></g></g><g id="SvgjsG3331" featureKey="nameFeature-0" transform="matrix(1.3701243504068759,0,0,1.3701243504068759,18.90390025834402,284.3257780062724)" fill="#ffffff"><path d="M9 40.64 c-3.44 0 -8.2 -1.48 -8.2 -1.48 l2.8 -7.96 s1.88 3.8 5.2 3.8 c2.68 0 4.36 -1.16 4.36 -2.92 c0 -3.2 -11.76 -3.3984 -11.76 -11.52 c0 -5.96 4.92 -9.12 11.64 -9.12 c3.32 0 7.36 1.8 7.36 1.8 l-2.76 7.52 s-2.24 -3.96 -4.8 -3.96 c-2.16 0 -3.36 1.36 -3.36 2.68 c0 3.12 12.08 3.64 12.08 11.6 c0 5.92 -5.52 9.56 -12.56 9.56 z M23.709999999999997 40 c0 0 1.88 -2.4 1.88 -4.76 l0 -18.48 c0 -2.36 -1.88 -4.76 -1.88 -4.76 l12.4 0 c6.6 0 12.24 2.68 12.24 8.88 c0 4.16 -2.08 6.84 -5.2 8.4 c-1.8 0.88 -3.92 1.36 -6.24 1.56 c-0.72 0.08 -2.6 0.08 -3.32 0.08 l0 4.32 c0 2.36 1.88 4.76 1.88 4.76 l-11.76 0 z M33.589999999999996 25.6 l1.44 0 c2.84 0 4.96 -1.36 4.96 -3.92 c0 -3 -2.44 -3.96 -5.28 -3.96 l-1.12 0 l0 7.88 z M74.86 40.56 c-5.2 0 -10 -3.4 -10.76 -9.68 c-0.76 0.04 -2.6 0.08 -3.32 0.08 l0 4.28 c0 2.36 1.88 4.76 1.88 4.76 l-11.76 0 s1.88 -2.4 1.88 -4.76 l0 -18.48 c0 -2.36 -1.88 -4.76 -1.88 -4.76 l12.4 0 c6.6 0 12.24 2.72 12.24 8.92 c0 4.16 -2.08 6.84 -5.2 8.36 c0.12 3.44 3.76 4.36 6.4 2.64 l0 8.48 c-0.6 0.12 -1.24 0.16 -1.88 0.16 z M60.779999999999994 25.64 l1.4 0 c2.84 0 5 -1.4 5 -3.96 c0 -2.96 -2.44 -3.96 -5.28 -3.96 l-1.12 0 l0 7.92 z M92.41 40.56 c-7.32 0 -13.64 -3.6 -13.64 -14.56 c0 -9.4 5.52 -14.56 12.84 -14.56 s13.64 3.6 13.64 14.56 c0 9.44 -5.52 14.56 -12.84 14.56 z M92.17 34.76 c2.68 0 4.68 -3.12 4.68 -8.76 c0 -6.6 -2.32 -8.72 -5 -8.72 s-4.68 3.08 -4.68 8.72 c0 6.6 2.32 8.76 5 8.76 z M120.44 40.56 c-6.56 0 -11.56 -3.72 -11.56 -10.56 l0 -13.08 c0 -2.48 -1.88 -4.92 -1.88 -4.92 l11.76 0 s-1.88 2.4 -1.88 4.8 l0 13.2 c0 3.24 1.16 4.72 3.56 4.72 c2.44 0 3.6 -1.48 3.6 -4.72 l0 -13.08 c0 -2.48 -1.88 -4.92 -1.88 -4.92 l11.76 0 s-1.88 2.4 -1.88 4.8 l0 13.2 c0 6.84 -5 10.56 -11.6 10.56 z M140.79 40 c0 0 1.88 -2.4 1.88 -4.76 l0 -16.84 l-2.44 0 c-2.36 0 -4.76 1.88 -4.76 1.88 l0 -8.28 l22.4 0 l0 8.28 s-2.4 -1.88 -4.76 -1.88 l-2.44 0 l0 16.84 c0 2.36 1.88 4.76 1.88 4.76 l-11.76 0 z M170.65000000000003 40 c0 0 1.88 -2.4 1.88 -4.8 l0 -18.44 c0 -2.4 -1.88 -4.76 -1.88 -4.76 l11.76 0 s-1.88 2.36 -1.88 4.76 l0 16.84 l6.04 0 c2.36 0 4.76 -1.88 4.76 -1.88 l0 8.28 l-20.68 0 z M207.00000000000003 40.56 c-7.32 0 -13.64 -3.6 -13.64 -14.56 c0 -9.4 5.52 -14.56 12.84 -14.56 s13.64 3.6 13.64 14.56 c0 9.44 -5.52 14.56 -12.84 14.56 z M206.76000000000002 34.76 c2.68 0 4.68 -3.12 4.68 -8.76 c0 -6.6 -2.32 -8.72 -5 -8.72 s-4.68 3.08 -4.68 8.72 c0 6.6 2.32 8.76 5 8.76 z M235.59000000000003 40.56 c-7.2 -0.12 -13.32 -3.76 -13.32 -14.56 c0 -9.44 5.52 -14.56 12.84 -14.56 c3.6 0 9.68 1.8 9.68 1.8 l-3.0596 7.9264 s-3.0948 -3.9796 -6.5404 -3.9796 c-2.76 0 -4.68 2.7332 -4.68 8.4132 c0 7.76 2.4 9.2 5.16 9.2 c1.12 0 2.44 -0.2 3.52 -0.44 l0 -5.16 c-1.3048 0 -2.8 1.8744 -2.8 1.8744 l0 -7.0744 l11.874 0 s-1.8744 2.3868 -1.8744 4.7736 l0 7.6664 s-4.16 4.12 -10.8 4.12 z"></path></g>
			</g>
		</svg>
	