<svg height="512" viewBox="0 0 40 58" width="512" xmlns="http://www.w3.org/2000/svg"><g id="Page-1" fill="none" fill-rule="evenodd"><g id="002---Waiting"><path id="Path" d="m38 4v7.97c-.0268677 3.2808912-1.1576093 6.4571833-3.21 9.017-2.19 2.746-5.39 4.279-8.06 6.473-.4621536.3777588-.7302224.9431017-.7302224 1.54s.2680688 1.1622412.7302224 1.54c2.668 2.194 5.867 3.727 8.06 6.473 2.0523907 2.5598167 3.1831323 5.7361088 3.21 9.017v7.97h-36v-7.97c.0268677-3.2808912 1.15760934-6.4571833 3.21-9.017 2.193-2.746 5.392-4.279 8.06-6.473.4621536-.3777588.7302224-.9431017.7302224-1.54s-.2680688-1.1622412-.7302224-1.54c-2.668-2.194-5.867-3.727-8.06-6.473-2.05239066-2.5598167-3.1831323-5.7361088-3.21-9.017v-7.97z" fill="#b0d3f0"/><rect id="Rectangle" fill="#f29c1f" height="6" rx="2" width="40"/><rect id="Rectangle" fill="#f29c1f" height="6" rx="2" width="40" y="52"/><path id="Path" d="m34 46.03v.97c0 .5522847-.4477153 1-1 1h-26c-.55228475 0-1-.4477153-1-1v-.97c.02965216-2.3737295.85346498-4.6691395 2.34-6.52 1.24615833-1.3719532 2.6804112-2.5604303 4.26-3.53 1.06-.72 2.14-1.47 3.21-2.35 1.6569804-1.3531745 2.4634104-3.4894129 2.114-5.6-.2732272-1.5193419-1.0993306-2.8837128-2.319-3.83-1-.8-2.01-1.5-3-2.181-.592-.41-1.173-.81-1.722-1.216-.3443443-.2582582-.4847973-.7078856-.3486833-1.1162278.136114-.4083421.5182529-.6837722.9486833-.6837722h17.04c.4304304 0 .8125693.2754301.9486833.6837722.136114.4083422-.004339.8579696-.3486833 1.1162278-.549.406-1.13.806-1.722 1.216-1.06.72-2.14 1.47-3.21 2.35-1.6569804 1.3531745-2.4634104 3.4894129-2.114 5.6.2740223 1.5202976 1.1016252 2.8851477 2.323 3.831 1 .8 2.01 1.505 3 2.181 1.5795888.9695697 3.0138417 2.1580468 4.26 3.53 1.4863249 1.8505916 2.3101251 4.1456145 2.34 6.519z" fill="#3b97d3"/><g fill="#fff"><path id="Path" d="m8 11h-2c-.55228475 0-1-.4477153-1-1 0-.55228475.44771525-1 1-1h2c.55228475 0 1 .44771525 1 1 0 .5522847-.44771525 1-1 1z"/><path id="Path" d="m34 11h-22c-.5522847 0-1-.4477153-1-1 0-.55228475.4477153-1 1-1h22c.5522847 0 1 .44771525 1 1 0 .5522847-.4477153 1-1 1z"/></g></g></g></svg>