<svg id="Layer_1" height="512" viewBox="0 0 64 64" width="512" xmlns="http://www.w3.org/2000/svg"><path d="m48 16c-8.84 0-16 7.16-16 16 0-4.42-1.79-8.42-4.68-11.32-2.9-2.89-6.9-4.68-11.32-4.68h-15v5c0 8.84 7.16 16 16 16h12.5v27h5v-27h12.5c8.84 0 16-7.16 16-16v-5z" fill="#7fc94f"/><path d="m34.5 37v27h-5v-27h2.5z" fill="#5eb132"/><g fill="#a8e580"><path d="m63 16s-21 5-31 21v-5c0-8.84 7.16-16 16-16z"/><path d="m32 32v5c-10-16-31-21-31-21h15c4.42 0 8.42 1.79 11.32 4.68 2.89 2.9 4.68 6.9 4.68 11.32z"/></g></svg>